<svg id="Layer_1" data-name="Layer 1" xmlns="http://www.w3.org/2000/svg" viewBox="0 0 262.3 60.9">
    <defs>
        <style>
        .cls-1 {
            fill: #12cf6c;
        }
        .cls-2 {
            fill: #6f6f6f;
        }
</style>
    </defs>
    <title>reviews.co.uk</title>
    <path class="cls-1" d="M36.4,14.2a20,20,0,1,0,20,20A20.06,20.06,0,0,0,36.4,14.2Zm9.4,34L36.3,41,27,48.2l3.6-11.8-9.3-7.2H32.6l3.7-11.3,3.8,11.3H51.4l-9.2,7.2Z" transform="translate(-16.4 -14.2)"/>

<g>
    <path d="M65.4,19.8A1.79,1.79,0,0,1,67.2,18H79.3c4,0,7.1,1.2,9.2,3.2A8.75,8.75,0,0,1,91,27.5v0.1c0,5.3-3.6,8.4-8.6,9.3l8,10.3a1.76,1.76,0,0,1,.6,1.3,1.86,1.86,0,0,1-1.8,1.8,2.06,2.06,0,0,1-1.7-1L78.4,37.5H69.2V48.4a1.8,1.8,0,0,1-3.6,0V19.8H65.4ZM78.9,34.4c4.8,0,8.3-2.5,8.3-6.6V27.7c0-4-3-6.3-8.2-6.3H69.1V34.5h9.8V34.4Z"
    transform="translate(-16.4 -14.2)"/>
    <path d="M98.2,48.3V19.8A1.79,1.79,0,0,1,100,18h20a1.7,1.7,0,0,1,0,3.4H101.8v11H118a1.75,1.75,0,0,1,1.7,1.7,1.69,1.69,0,0,1-1.7,1.7H101.9V47.1h18.4a1.69,1.69,0,0,1,1.7,1.7,1.63,1.63,0,0,1-1.7,1.7H100A2.34,2.34,0,0,1,98.2,48.3Z"
    transform="translate(-16.4 -14.2)"/>
    <path d="M138.9,49L126.5,20.3a2.35,2.35,0,0,1-.2-0.8,1.86,1.86,0,0,1,1.8-1.8,2,2,0,0,1,1.9,1.4l11.1,26.7L152.4,19a2.25,2.25,0,0,1,1.8-1.3,1.77,1.77,0,0,1,1.8,1.7,1.48,1.48,0,0,1-.1.7L143.3,49a2.26,2.26,0,0,1-2.1,1.5H141A2.13,2.13,0,0,1,138.9,49Z"
    transform="translate(-16.4 -14.2)"/>
    <path d="M162.7,19.6a1.8,1.8,0,0,1,3.6,0v29a1.8,1.8,0,0,1-3.6,0v-29Z"
    transform="translate(-16.4 -14.2)"/>
    <path d="M175.3,48.3V19.8a1.79,1.79,0,0,1,1.8-1.8h20a1.7,1.7,0,0,1,0,3.4H178.9v11H195a1.75,1.75,0,0,1,1.7,1.7,1.69,1.69,0,0,1-1.7,1.7H178.9V47.1h18.4a1.69,1.69,0,0,1,1.7,1.7,1.63,1.63,0,0,1-1.7,1.7H177.1A2.34,2.34,0,0,1,175.3,48.3Z" transform="translate(-16.4 -14.2)"/>
    <path d="M203.7,20.4a3.09,3.09,0,0,1-.2-0.8,1.88,1.88,0,0,1,1.9-1.8,2.14,2.14,0,0,1,1.9,1.5l8.9,25.6,8.4-25.7a1.83,1.83,0,0,1,1.8-1.4h0.2a1.92,1.92,0,0,1,1.8,1.4l8.4,25.7,8.9-25.7a1.9,1.9,0,0,1,1.7-1.4,1.86,1.86,0,0,1,1.8,1.8,2.92,2.92,0,0,1-.2.9L238.8,49a2.11,2.11,0,0,1-1.9,1.6h-0.3a2,2,0,0,1-1.9-1.6l-8.4-24.8L218,49a2.11,2.11,0,0,1-1.9,1.6h-0.3a2,2,0,0,1-1.9-1.6Z" transform="translate(-16.4 -14.2)"/>
    <path d="M253.9,46.3a1.75,1.75,0,0,1-.7-1.4,1.77,1.77,0,0,1,1.7-1.8,1.6,1.6,0,0,1,1.1.4,14.53,14.53,0,0,0,10.2,3.8c4.3,0,7.2-2.3,7.2-5.5V41.7c0-3-1.6-4.7-8.4-6.1-7.4-1.6-10.8-4-10.8-9.3V26.2c0-5.1,4.5-8.8,10.6-8.8a16.84,16.84,0,0,1,10.3,3.2,1.87,1.87,0,0,1,.8,1.5,1.69,1.69,0,0,1-1.7,1.7,2.28,2.28,0,0,1-1.1-.3,13.21,13.21,0,0,0-8.3-2.8c-4.2,0-6.9,2.3-6.9,5.2V26c0,3,1.7,4.7,8.7,6.3,7.2,1.6,10.5,4.2,10.5,9.1v0.1c0,5.5-4.6,9.1-11,9.1A18.57,18.57,0,0,1,253.9,46.3Z" transform="translate(-16.4 -14.2)"/>
    <path class="cls-2" d="M18,63h2.3l2.8,8.8L26,63h1.8l2.9,8.9,2.8-8.8h2.2l-4.1,12H29.8l-2.9-8.6-3,8.5H22.1Z" transform="translate(-16.4 -14.2)"/>
    <path class="cls-2" d="M40.5,63h2.3l2.8,8.8,2.9-8.9h1.8l2.9,8.9L56,63h2.2L54.1,75H52.3l-2.9-8.6L46.5,75H44.7Z" transform="translate(-16.4 -14.2)"/>
    <path class="cls-2" d="M63.1,63h2.3l2.8,8.8,2.9-8.9h1.8l2.9,8.9L78.6,63h2.2L76.7,75H74.9L72,66.4,69,75H67.2Z" transform="translate(-16.4 -14.2)"/>
    <path class="cls-2" d="M84.6,72.6h2.3v2.3H84.6V72.6Z" transform="translate(-16.4 -14.2)"/>
    <path class="cls-2" d="M93.3,63h5.3a4.4,4.4,0,0,1,3.4,1.2,3.62,3.62,0,0,1,1,2.6h0a3.58,3.58,0,0,1-2.8,3.6l3.2,4.5h-2.5L98,70.8H95.4v4.1H93.3V63Zm5.2,5.9c1.5,0,2.4-.8,2.4-2h0c0-1.3-.9-2-2.5-2h-3v4h3.1Z" transform="translate(-16.4 -14.2)"/>
    <path class="cls-2" d="M109.3,63h8.8v1.9h-6.7V68h6v1.9h-6v3.2h6.8V75h-8.9V63Z" transform="translate(-16.4 -14.2)"/>
    <path class="cls-2" d="M123.4,63h2.3l3.6,9.1,3.6-9.1h2.3l-4.9,12h-1.8Z" transform="translate(-16.4 -14.2)"/>
    <path class="cls-2" d="M141.1,63h2.1V74.9h-2.1V63Z" transform="translate(-16.4 -14.2)"/>
    <path class="cls-2" d="M150.1,63h8.8v1.9h-6.7V68h6v1.9h-6v3.2H159V75h-8.9V63h0Z" transform="translate(-16.4 -14.2)"/>
    <path class="cls-2" d="M164.3,63h2.3l2.8,8.8,2.9-8.9h1.8l2.9,8.9,2.8-8.8H182l-4.1,12h-1.8l-2.9-8.6L170.3,75h-1.8Z" transform="translate(-16.4 -14.2)"/>
    <path class="cls-2" d="M186.8,73.2l1.3-1.5a5.37,5.37,0,0,0,3.8,1.5c1.3,0,2.1-.6,2.1-1.5h0c0-.8-0.5-1.3-2.7-1.8-2.5-.6-4-1.4-4-3.6h0c0-2,1.7-3.5,4.1-3.5a6.44,6.44,0,0,1,4.3,1.5l-1.1,1.6a5.32,5.32,0,0,0-3.2-1.2c-1.2,0-1.9.6-1.9,1.4h0c0,0.9.5,1.3,2.8,1.9,2.5,0.6,3.8,1.5,3.8,3.5h0c0,2.2-1.8,3.6-4.2,3.6A7.18,7.18,0,0,1,186.8,73.2Z" transform="translate(-16.4 -14.2)"/>
    <path class="cls-2" d="M201.8,72.6h2.3v2.3h-2.3V72.6Z" transform="translate(-16.4 -14.2)"/>
    <path class="cls-2" d="M209.3,69h0a6,6,0,0,1,6.1-6.2,6.37,6.37,0,0,1,4.7,1.9l-1.3,1.5a4.82,4.82,0,0,0-3.3-1.5,4,4,0,0,0-3.9,4.2h0a4,4,0,0,0,3.9,4.2,4.68,4.68,0,0,0,3.4-1.5l1.3,1.4A6.23,6.23,0,0,1,209.3,69Z" transform="translate(-16.4 -14.2)"/>
    <path class="cls-2" d="M225.3,69h0a6.2,6.2,0,0,1,12.4-.1h0a6.17,6.17,0,0,1-6.2,6.2A6,6,0,0,1,225.3,69Zm10.2,0h0a4.15,4.15,0,0,0-4-4.3,4,4,0,0,0-4,4.2h0a4.06,4.06,0,0,0,4,4.2A3.86,3.86,0,0,0,235.5,69Z" transform="translate(-16.4 -14.2)"/>
    <path class="cls-2" d="M242.9,72.6h2.3v2.3h-2.3V72.6Z" transform="translate(-16.4 -14.2)"/>
    <path class="cls-2" d="M251.2,69.9V63h2.1v6.8c0,2.2,1.1,3.4,3,3.4s3-1.1,3-3.3V63h2.1v6.7c0,3.6-2,5.3-5.1,5.3S251.2,73.3,251.2,69.9Z" transform="translate(-16.4 -14.2)"/>
    <path class="cls-2" d="M268,63h2.1v6l5.7-6h2.6l-4.9,5.1,5.2,6.8H276l-4.1-5.4L270,71.4v3.5h-2V63Z" transform="translate(-16.4 -14.2)"/>
</g>
</svg>